<svg width="166" height="346" viewBox="0 0 166 346" fill="none" xmlns="http://www.w3.org/2000/svg">
    <path fill-rule="evenodd" clip-rule="evenodd" d="M0 0V346C54.8604 346 109.721 346 164.582 346V0C109.721 0 54.8604 0 0 0Z" fill="#F71545"/>
    <path fill-rule="evenodd" clip-rule="evenodd" d="M137.212 346H159.5V206.337C159.5 206.212 159.5 205.948 159.5 205.559C159.5 204.391 159.534 203.19 159.6 201.958C159.64 201.209 159.659 200.232 159.831 199.419L159.239 198.703L164.627 190.171V139.193L143.355 174.625L140.993 180.844C139.998 183.438 139.235 185.806 138.704 187.947C138.173 190.087 137.791 192.423 137.559 194.953C137.328 197.481 137.212 200.758 137.212 204.781V346ZM159.7 100H137.212V114.481C137.212 118.503 137.311 121.78 137.51 124.309C137.709 126.839 138.091 129.141 138.655 131.218C139.219 133.294 139.998 135.695 140.993 138.418L148.27 157.572L164.465 131.934L160.595 121.098C160.131 119.8 159.866 118.438 159.799 117.011C159.733 115.584 159.7 114.222 159.7 112.924V100Z" fill="#FF6363"/>
    <path d="M108.655 183.967C108.655 185.987 108.315 187 107.636 187H103.334C102.655 187 102.315 185.992 102.315 183.967V55.1071C102.315 53.3671 102.348 51.9482 102.413 50.8539C102.48 49.7573 102.588 48.7466 102.739 47.82C102.89 46.8919 103.107 45.8683 103.391 44.7454L104.062 42.0531L110.724 25.1618C110.759 25.1085 110.791 25.0412 110.819 24.9656C110.842 24.9056 110.863 24.8364 110.883 24.7594L113.004 19.3824L112.984 19.3672L113.184 18.8772C113.362 18.4414 113.392 17.7242 113.41 17.1084C113.43 16.4901 113.439 15.8988 113.439 15.338V9.52429C113.439 7.50223 113.779 6.49151 114.458 6.49151H118.761C119.439 6.49151 119.78 7.50223 119.78 9.52429V16.0118C119.78 17.753 119.751 19.1719 119.694 20.2672C119.638 21.3623 119.529 22.3595 119.369 23.2584C119.208 24.1563 119.105 25.9412 118.795 27.0579L118.121 29.4868L108.581 52.4765L108.749 52.7871C108.7 53.1373 108.695 53.5613 108.683 53.8859C108.665 54.4194 108.655 54.9394 108.655 55.4453C108.655 55.6142 108.655 55.7272 108.655 55.7828V183.967ZM160 51.2329C160 53.8163 159.873 56.1618 159.618 58.2679C159.363 60.3741 158.915 62.1861 158.273 63.702C157.632 65.2187 156.74 66.3848 155.599 67.198C154.457 68.0127 153 68.4204 151.226 68.4204C149.452 68.4204 147.995 68.0127 146.853 67.198C145.711 66.3848 144.82 65.2187 144.179 63.702C143.537 62.1861 143.084 60.3741 142.82 58.2679C142.556 56.1618 142.423 53.8163 142.423 51.2329V22.5027C142.423 19.9193 142.556 17.5739 142.82 15.4673C143.084 13.3611 143.537 11.5495 144.179 10.0336C144.82 8.5165 145.711 7.33678 146.853 6.49444C147.995 5.65224 149.452 5.23049 151.226 5.23049C153 5.23049 154.457 5.65224 155.599 6.49444C156.74 7.33678 157.632 8.5165 158.273 10.0336C158.915 11.5495 159.363 13.3611 159.618 15.4673C159.873 17.5739 160 19.9193 160 22.5027V51.2329ZM148.848 48.1998C148.848 49.3229 148.99 50.2637 149.273 51.0224C149.556 51.7804 150.207 52.1594 151.226 52.1594C152.264 52.1594 152.919 51.7804 153.193 51.0224C153.467 50.2637 153.603 49.3229 153.603 48.1998V25.5355C153.603 24.4124 153.467 23.4859 153.193 22.7555C152.919 22.0255 152.264 21.6605 151.226 21.6605C150.207 21.6605 149.556 22.0255 149.273 22.7555C148.99 23.4859 148.848 24.4124 148.848 25.5355V48.1998ZM128.837 67.1565H124.45C123.771 67.1565 123.431 66.1457 123.431 64.1238V9.52759C123.431 7.50566 123.771 6.49444 124.45 6.49444H133.111C134.828 6.49444 136.172 7.18215 137.144 8.55796C138.115 9.93418 138.8 11.8591 139.196 14.3302C139.592 16.8019 139.79 19.666 139.79 22.9233V33.708C139.79 36.9659 139.592 39.8301 139.196 42.3017C138.8 44.773 138.115 46.6966 137.144 48.0729C136.172 49.4489 134.828 50.1374 133.111 50.1374H129.856V64.1238C129.856 66.1457 129.516 67.1565 128.837 67.1565ZM129.799 22.2495V34.9719H132.347C132.893 34.9719 133.252 34.5514 133.422 33.708C133.592 32.8652 133.677 31.9112 133.677 30.8433V26.3777C133.677 25.2547 133.592 24.2855 133.422 23.4707C133.252 22.6572 132.893 22.2495 132.347 22.2495H129.799ZM98.2096 67.1565H85.0768C84.3976 67.1565 84.0578 66.1457 84.0578 64.1238V9.52759C84.0578 7.50566 84.3976 6.49444 85.0768 6.49444H98.2096C98.8889 6.49444 99.2284 7.50566 99.2284 9.52759V19.3853C99.2284 21.4072 98.8889 22.4185 98.2096 22.4185H90.3978V28.906H95.9168C96.5965 28.906 96.9361 29.9168 96.9361 31.9388V40.9542C96.9361 42.9762 96.5965 43.9873 95.9168 43.9873H90.3978V51.2329H98.2096C98.8889 51.2329 99.2284 52.2436 99.2284 54.2657V64.1238C99.2284 66.1457 98.8889 67.1565 98.2096 67.1565ZM82.8622 67.1576H70.0436C69.3474 67.1576 69 66.1212 69 64.0489V53.604C69 51.5318 69.3474 50.4953 70.0436 50.4953H73.2921V21.6612H70.6238C69.9278 21.6612 69.5799 20.6247 69.5799 18.5536V8.10755C69.5799 6.03537 69.9278 5 70.6238 5H79.0341C79.7299 5 80.0788 6.03537 80.0788 8.10755V50.4953H82.8622C83.558 50.4953 83.9062 51.5318 83.9062 53.604V64.0489C83.9062 66.1212 83.558 67.1576 82.8622 67.1576ZM116.594 36.3733L118.703 44.7454C119.006 45.8683 119.232 46.8919 119.383 47.82C119.535 48.7466 119.638 49.7573 119.694 50.8539C119.751 51.9482 119.78 53.3671 119.78 55.1071V64.1238C119.78 66.1468 119.439 67.1576 118.761 67.1576H114.458C113.779 67.1576 113.439 66.1468 113.439 64.1238V55.7828C113.439 55.7262 113.439 55.6142 113.439 55.4453C113.439 53.9978 112.825 49.9731 112.636 49.5245C112.541 49.2994 112.465 47.2774 112.314 47.2774H112.294L116.594 36.3733ZM105.46 34.6696L103.391 26.377C103.107 25.1961 102.885 24.1563 102.725 23.2584C102.565 22.3595 102.456 21.3623 102.4 20.2672C102.343 19.1719 102.315 17.753 102.315 16.0118V9.52429C102.315 7.50223 102.654 6.49151 103.334 6.49151H107.693C108.372 6.49151 108.712 7.50223 108.712 9.52429V15.338C108.712 15.8988 108.721 16.4901 108.74 17.1084C108.759 17.7242 108.835 18.3145 108.967 18.8772L110.068 23.5679L105.46 34.6696Z" fill="#FF6363"/>
    <path d="M12.8842 22.4177H5.18323C4.76494 22.4177 4.55603 22.1274 4.55603 21.5466V18.6196C4.55603 18.0391 4.76494 17.7487 5.18323 17.7487H7.13461V9.66896H5.53176C5.11346 9.66896 4.90455 9.37857 4.90455 8.79791V5.87105C4.90455 5.29039 5.11346 5 5.53176 5H10.5846C11.0026 5 11.2117 5.29039 11.2117 5.87105V17.7487H12.8842C13.3025 17.7487 13.5117 18.0391 13.5117 18.6196V21.5466C13.5117 22.1274 13.3025 22.4177 12.8842 22.4177Z" fill="#083075"/>
    <path d="M22.1051 22.4177H14.2149C13.8067 22.4177 13.6025 22.1343 13.6025 21.5678V6.26863C13.6025 5.70176 13.8067 5.41839 14.2149 5.41839H22.1051C22.5131 5.41839 22.7173 5.70176 22.7173 6.26863V9.03057C22.7173 9.59744 22.5131 9.88085 22.1051 9.88085H17.4117V11.6987H20.7278C21.1357 11.6987 21.3399 11.982 21.3399 12.5486V15.0751C21.3399 15.6416 21.1357 15.925 20.7278 15.925H17.4117V17.9552H22.1051C22.5131 17.9552 22.7173 18.2386 22.7173 18.8055V21.5678C22.7173 22.1343 22.5131 22.4177 22.1051 22.4177Z" fill="white"/>
    <path d="M28.3804 55.1504C28.3804 55.7163 28.1759 56 27.7681 56H27.5861C27.7625 55.6504 27.6946 55.0338 27.6946 54.4603C28.1019 54.3572 28.2923 54.3361 28.3197 54.0606C28.1726 53.9467 27.8899 54.1199 27.6996 54.1728L27.6971 53.6237H24.5712V53.3128H27.7643C27.9357 53.1798 28.0749 53.0889 28.0675 52.7311C28.0597 52.3579 27.913 52.1703 27.659 52.1378L24.5712 52.1333V46.7137C25.0909 46.6456 25.4978 46.0378 25.4978 45.2982C25.4978 44.5586 25.0909 43.9511 24.5712 43.8827V19.0415C24.5712 18.5535 24.5911 18.156 24.6304 17.8493C24.6702 17.5422 24.7355 17.2587 24.8261 16.999C24.917 16.7395 25.0473 16.4523 25.2174 16.1376L25.6211 15.3829L29.6235 10.65C29.6441 10.6349 29.6632 10.6162 29.681 10.5948C29.6941 10.5781 29.7064 10.5586 29.7191 10.5371L30.9932 9.03046L30.9809 9.02602L31.1012 8.88856C31.208 8.76633 31.2261 8.56581 31.2372 8.39275C31.2486 8.21959 31.2543 8.05411 31.2543 7.89685V6.26753C31.2543 5.701 31.4584 5.41793 31.8662 5.41793H34.4515C34.8596 5.41793 35.0635 5.701 35.0635 6.26753V8.08569C35.0635 8.57371 35.0467 8.97119 35.0126 9.27792C34.9786 9.58499 34.9134 9.86472 34.8169 10.1163C34.7206 10.3681 34.6587 10.8681 34.4724 11.1808L34.0673 11.8615L28.3356 18.3038L28.4368 18.3907C28.4074 18.4892 28.4042 18.6081 28.3973 18.6988C28.3861 18.8483 28.3804 18.9939 28.3804 19.1355C28.3804 19.1827 28.3804 19.2149 28.3804 19.23V45.0724C28.0881 45.0721 27.7959 45.0718 27.5039 45.0721L26.6461 45.0718C26.607 45.0718 26.555 45.0796 26.5248 45.0784C26.4855 45.1339 26.4555 45.108 26.3926 45.2749C26.2682 45.6036 26.2886 46.1957 26.2686 46.2396L26.2734 46.7011C26.2778 46.853 26.2821 46.9996 26.2889 47.1496C26.3015 47.4372 26.3229 47.7244 26.3445 48.0091C26.3659 48.2875 26.3961 48.5636 26.4163 48.8405C26.4303 49.035 26.4653 49.2225 26.5262 49.3905C26.545 49.4429 26.5743 49.5005 26.5879 49.5476C26.5968 49.5554 26.6437 49.6469 26.656 49.6677C26.6794 49.7081 26.7057 49.7449 26.733 49.7818C26.7691 49.8306 26.8118 49.8792 26.8567 49.9227C26.7852 49.9098 26.787 49.9363 26.7155 50.0847C26.6458 50.2294 26.6197 50.3716 26.6581 50.5633C26.6944 50.7461 26.7879 50.7528 26.7601 50.9643C26.7389 51.1235 26.6731 51.1099 26.6415 51.4132C26.9728 51.3959 27.0109 50.98 26.9412 50.7096C26.8986 50.5437 26.8118 50.5298 26.8583 50.3423C26.8926 50.2039 26.931 50.2007 26.9634 50.0134C27.3976 50.3413 27.98 50.3139 28.3804 49.9215V55.1504ZM28.3804 45.8226V45.9484L26.6542 45.9462C26.6565 46.2126 26.6538 46.4802 26.6542 46.7467C26.6546 47.0014 26.6315 47.2741 26.7098 47.4784C26.7693 47.6341 26.8872 47.7731 27.0439 47.8109C27.1292 47.8315 27.7621 47.8198 27.9017 47.8198C27.9873 47.8198 28.1056 47.8298 28.1867 47.812C28.2627 47.7966 28.3268 47.7588 28.3804 47.7077V47.8531C28.3029 47.9108 28.2101 47.9435 28.0893 47.9435L27.5153 47.9433C27.2262 47.9435 26.9803 47.9955 26.7843 47.7847C26.7174 47.7125 26.6574 47.6172 26.6151 47.4905C26.5638 47.336 26.5656 47.2228 26.5654 47.0377L26.5656 45.9489C26.5654 45.8701 26.5596 45.8222 26.6233 45.8222L28.3804 45.8213V45.8226ZM25.9871 47.5612L26.2214 47.5615C26.2214 47.459 26.2087 47.3377 26.2041 47.2355C26.2005 47.1545 26.1856 46.9704 26.1937 46.9017C26.1739 46.8595 26.1833 46.3055 26.1828 46.2072L25.9859 46.2078L25.9871 47.5612ZM27.0898 46.2018L26.8463 46.528C26.8093 46.588 26.8483 46.6691 26.8976 46.6321L27.1381 46.3024C27.1774 46.245 27.1394 46.1668 27.0898 46.2018ZM27.3499 46.3424C27.3322 46.3563 27.1315 46.6406 27.1006 46.6842C27.0804 46.7125 26.9217 46.9227 26.9163 46.949C26.9058 47.0013 26.9405 47.0432 26.9787 47.0215L27.1665 46.7674C27.2014 46.7188 27.4076 46.4373 27.4117 46.4131C27.4206 46.3576 27.3831 46.3172 27.3499 46.3424ZM25.4603 39.9039C25.4706 40.5552 25.4026 41.0227 25.8188 41.4922C25.963 41.6549 26.0752 41.6693 26.1474 41.7286C26.1626 42.1094 26.1045 42.0498 26.2403 42.1791C26.2598 42.6643 26.1965 42.9679 26.0177 43.2248C25.8365 43.4852 25.6254 43.5621 25.2782 43.5504L25.2744 43.961C25.5275 43.9687 25.7073 43.9687 25.9432 43.8058C26.1976 43.6302 26.3978 43.3023 26.4864 42.926C26.5491 42.6598 26.533 42.4663 26.5389 42.1791C26.6614 42.0501 26.6274 42.1426 26.6322 41.7286C26.731 41.6482 26.7639 41.6993 26.9571 41.4953C27.0591 41.3878 27.1192 41.2901 27.1937 41.1236C27.3506 40.7708 27.3156 40.3509 27.3186 39.9077C27.545 39.8632 27.518 39.5927 27.5125 39.2097C27.5102 39.059 27.4462 39.1028 27.3415 39.1035L25.3593 39.1023C25.2471 39.1032 25.275 39.1068 25.2744 39.4954C25.2739 39.736 25.2925 39.8683 25.4603 39.9039ZM25.6499 38.9449L25.9837 38.9504C25.983 38.6859 25.9835 38.4236 25.9835 38.1613C25.9835 37.9132 26.0191 37.5939 25.8168 37.5958C25.6161 37.598 25.651 37.9189 25.651 38.1447C25.651 38.4098 25.6549 38.6806 25.6499 38.9449ZM26.8018 38.9471L27.1353 38.9493C27.1331 38.6847 27.1349 38.4225 27.1349 38.1611C27.1349 37.9168 27.1706 37.5965 26.9694 37.5956C26.7689 37.5946 26.8023 37.9039 26.8023 38.1444C26.8023 38.4108 26.8056 38.6813 26.8018 38.9471ZM26.0577 40.4937L26.3524 40.5015L26.1765 41.1445C26.2153 41.1124 26.281 40.9873 26.3152 40.9374L26.7196 40.275L26.4274 40.2745C26.4364 40.1833 26.5686 39.7583 26.6031 39.6177L26.0577 40.4937ZM24.8332 51.413C25.0177 51.4052 25.0182 51.4549 25.1058 51.2188C25.2794 50.7509 25.0052 50.6293 25.0416 50.3705C25.0612 50.2321 25.1302 50.21 25.1629 49.9262C24.9778 49.9329 24.9848 49.8749 24.8941 50.1129C24.7155 50.5808 24.9833 50.7392 24.9531 50.9603C24.9392 51.0628 24.8666 51.152 24.8332 51.413ZM25.7323 51.4108C25.9476 51.4104 25.9051 51.4609 25.9994 51.2384C26.0598 51.0952 26.0877 50.9492 26.0545 50.775C26.0196 50.5915 25.928 50.565 25.9517 50.3638C25.9666 50.2352 26.0386 50.1763 26.0725 49.9266C25.8863 49.9277 25.8874 49.9117 25.8036 50.0986C25.6011 50.5504 25.8836 50.6986 25.8529 50.9745C25.8359 51.1274 25.7666 51.1147 25.7323 51.4108ZM33.1502 13.791L34.4172 16.1368C34.5989 16.4514 34.7347 16.7386 34.8255 16.9981C34.9161 17.2578 34.9786 17.5413 35.0126 17.8483C35.0467 18.1551 35.0635 18.5526 35.0635 19.0406V21.5671C35.0635 22.134 34.8596 22.417 34.4515 22.417H31.8662C31.4584 22.417 31.2543 22.134 31.2543 21.5671V19.2295C31.2543 19.214 31.2543 19.1822 31.2543 19.1349C31.2543 18.7295 30.8851 17.6018 30.772 17.476C30.7152 17.413 30.6689 16.8461 30.5785 16.8461H30.5665L33.1502 13.791ZM26.4609 13.3133L25.2174 10.9892C25.0473 10.6589 24.914 10.3675 24.8177 10.1157C24.7212 9.8638 24.6561 9.58445 24.622 9.27738C24.5881 8.97064 24.5712 8.57313 24.5712 8.08512V6.26696C24.5712 5.70042 24.775 5.41739 25.1835 5.41739H27.8023C28.2103 5.41739 28.4144 5.70042 28.4144 6.26696V7.89627C28.4144 8.05353 28.4201 8.21905 28.4314 8.39221C28.4428 8.56526 28.4879 8.73042 28.5673 8.88801L29.2289 10.2027L26.4609 13.3133Z" fill="white"/>
    <path d="M40.5053 22.4177H37.8695C37.4613 22.4177 37.2571 22.1343 37.2571 21.5678V6.26863C37.2571 5.70176 37.4613 5.41839 37.8695 5.41839H43.0729C44.1047 5.41839 44.9124 5.61125 45.4961 5.99683C46.0799 6.38242 46.4909 6.92181 46.7291 7.61413C46.9673 8.30679 47.0862 9.10944 47.0862 10.0224V13.0445C47.0862 13.9575 46.9673 14.7601 46.7291 15.4528C46.4909 16.1453 46.0799 16.6845 45.4961 17.07C44.9124 17.4555 44.1047 17.6485 43.0729 17.6485H41.1174V21.5678C41.1174 22.1343 40.9133 22.4177 40.5053 22.4177ZM41.0834 9.83357V13.3988H42.6138C42.9426 13.3988 43.1581 13.2806 43.26 13.0445C43.362 12.8084 43.413 12.5407 43.413 12.2419V10.9905C43.413 10.6756 43.362 10.4042 43.26 10.1759C43.1581 9.94768 42.9426 9.83357 42.6138 9.83357H41.0834Z" fill="white"/>
    <path d="M59.2282 17.9552C59.2282 18.6794 59.1517 19.3367 58.9985 19.9269C58.8456 20.517 58.5763 21.0249 58.1908 21.4496C57.8054 21.8745 57.2698 22.2015 56.5839 22.4294C55.8979 22.6577 55.0223 22.7718 53.9567 22.7718C52.8909 22.7718 52.0151 22.6577 51.3294 22.4294C50.6434 22.2015 50.1078 21.8745 49.7223 21.4496C49.3369 21.0249 49.0649 20.517 48.9062 19.9269C48.7475 19.3367 48.668 18.6794 48.668 17.9552V9.90455C48.668 9.18031 48.7475 8.52332 48.9062 7.93288C49.0649 7.34265 49.3369 6.83517 49.7223 6.4101C50.1078 5.98514 50.6434 5.65451 51.3294 5.41839C52.0151 5.1825 52.8909 5.06429 53.9567 5.06429C55.0223 5.06429 55.8979 5.1825 56.5839 5.41839C57.2698 5.65451 57.8054 5.98514 58.1908 6.4101C58.5763 6.83517 58.8456 7.34265 58.9985 7.93288C59.1517 8.52332 59.2282 9.18031 59.2282 9.90455V17.9552ZM52.5283 17.1053C52.5283 17.4203 52.6132 17.6838 52.7833 17.8963C52.9534 18.1087 53.3443 18.2151 53.9567 18.2151C54.58 18.2151 54.9742 18.1087 55.1384 17.8963C55.3028 17.6838 55.385 17.4203 55.385 17.1053V10.7545C55.385 10.4395 55.3028 10.1797 55.1384 9.97515C54.9742 9.77051 54.58 9.66843 53.9567 9.66843C53.3443 9.66843 52.9534 9.77051 52.7833 9.97515C52.6132 10.1797 52.5283 10.4395 52.5283 10.7545V17.1053Z" fill="white"/>
    <path fill-rule="evenodd" clip-rule="evenodd" d="M31.3529 24.5706H58.3437C58.5416 24.5706 58.7033 24.795 58.7033 25.0696V30.267C58.7033 30.5419 58.5416 30.7665 58.3437 30.7665H31.3529C31.1549 30.7665 30.9932 30.5419 30.9932 30.267V25.0696C30.9932 24.795 31.1549 24.5706 31.3529 24.5706Z" fill="#083075"/>
    <path d="M33.4224 37.4477H31.5882C31.4932 37.4477 31.4457 37.3818 31.4457 37.25V33.6936C31.4457 33.5618 31.4932 33.4963 31.5882 33.4963H33.4224C33.5173 33.4963 33.5645 33.5618 33.5645 33.6936V34.3357C33.5645 34.4675 33.5173 34.5335 33.4224 34.5335H32.3313V34.9559H33.1022C33.1971 34.9559 33.2445 35.0218 33.2445 35.1535V35.7408C33.2445 35.8726 33.1971 35.9386 33.1022 35.9386H32.3313V36.4105H33.4224C33.5173 36.4105 33.5645 36.4764 33.5645 36.6079V37.25C33.5645 37.3818 33.5173 37.4477 33.4224 37.4477ZM34.7861 37.4477H34.1735C34.0786 37.4477 34.0311 37.3818 34.0311 37.25V33.6936C34.0311 33.5618 34.0786 33.4963 34.1735 33.4963H35.383C35.6229 33.4963 35.8106 33.541 35.9464 33.6305C36.0822 33.7204 36.1776 33.8455 36.2329 34.0066C36.2883 34.1675 36.3158 34.3541 36.3158 34.5662V35.269C36.3158 35.4812 36.2883 35.6678 36.2329 35.8285C36.1776 35.9896 36.0822 36.1151 35.9464 36.2046C35.8106 36.2941 35.6229 36.3393 35.383 36.3393H34.9284V37.25C34.9284 37.3818 34.881 37.4477 34.7861 37.4477ZM34.9205 34.5223V35.3512H35.2763C35.3526 35.3512 35.4028 35.3238 35.4266 35.269C35.4502 35.2141 35.4621 35.1519 35.4621 35.0823V34.7913C35.4621 34.7182 35.4502 34.6551 35.4266 34.6019C35.4028 34.5491 35.3526 34.5223 35.2763 34.5223H34.9205ZM38.0474 37.4477H36.7981C36.7032 37.4477 36.6559 37.3818 36.6559 37.25V36.6079C36.6559 36.4764 36.7032 36.4105 36.7981 36.4105H37.8616C37.8959 36.4105 37.9214 36.3947 37.9386 36.3639C37.9557 36.3326 37.9643 36.2952 37.9643 36.2513C37.9643 36.1892 37.9557 36.1431 37.9386 36.1142C37.9214 36.0848 37.8959 36.0681 37.8616 36.0647L37.2686 35.9496C37.0842 35.9092 36.9359 35.8241 36.824 35.6942C36.7118 35.5643 36.6559 35.3456 36.6559 35.0382V34.4622C36.6559 34.1476 36.7283 33.9077 36.8733 33.7431C37.0183 33.5786 37.2186 33.4963 37.474 33.4963H38.581C38.6759 33.4963 38.7234 33.5618 38.7234 33.6936V34.3469C38.7234 34.4785 38.6759 34.5445 38.581 34.5445H37.6598C37.5887 34.5445 37.5531 34.5993 37.5531 34.7091C37.5531 34.815 37.5887 34.8736 37.6598 34.8846L38.249 34.9943C38.3728 35.0202 38.4808 35.065 38.573 35.1289C38.6652 35.193 38.7372 35.2872 38.7885 35.4114C38.8399 35.536 38.8657 35.7006 38.8657 35.9054V36.4818C38.8657 36.7929 38.7931 37.0315 38.6482 37.198C38.5031 37.3645 38.3031 37.4477 38.0474 37.4477ZM48.2818 37.4477H46.4476C46.3527 37.4477 46.3052 37.3818 46.3052 37.25V33.6936C46.3052 33.5618 46.3527 33.4963 46.4476 33.4963H48.2818C48.3767 33.4963 48.4239 33.5618 48.4239 33.6936V34.3357C48.4239 34.4675 48.3767 34.5335 48.2818 34.5335H47.1907V34.9559H47.9614C48.0563 34.9559 48.1037 35.0218 48.1037 35.1535V35.7408C48.1037 35.8726 48.0563 35.9386 47.9614 35.9386H47.1907V36.4105H48.2818C48.3767 36.4105 48.4239 36.4764 48.4239 36.6079V37.25C48.4239 37.3818 48.3767 37.4477 48.2818 37.4477ZM49.6258 37.4477H49.0327C48.938 37.4477 48.8906 37.3818 48.8906 37.25V33.6936C48.8906 33.5618 48.938 33.4963 49.0327 33.4963H49.4439C49.5388 33.4963 49.6165 33.5454 49.6771 33.6441L50.4439 34.8626V33.6936C50.4439 33.5618 50.4914 33.4963 50.5863 33.4963H51.1791C51.274 33.4963 51.3215 33.5618 51.3215 33.6936V37.25C51.3215 37.3818 51.274 37.4477 51.1791 37.4477H50.5863C50.4914 37.4477 50.4439 37.3818 50.4439 37.25V36.5751L49.7679 35.4389V37.25C49.7679 37.3818 49.7207 37.4477 49.6258 37.4477ZM53.2111 37.4477H52.5707C52.4759 37.4477 52.4284 37.3818 52.4284 37.25V34.5555H51.8473C51.7524 34.5555 51.705 34.4897 51.705 34.3579V33.6936C51.705 33.5618 51.7524 33.4963 51.8473 33.4963H53.9345C54.0294 33.4963 54.0769 33.5618 54.0769 33.6936V34.3579C54.0769 34.4897 54.0294 34.5555 53.9345 34.5555H53.3534V37.25C53.3534 37.3818 53.306 37.4477 53.2111 37.4477ZM55.2113 37.4477H54.6025C54.5076 37.4477 54.4602 37.3818 54.4602 37.25V33.6936C54.4602 33.5618 54.5076 33.4963 54.6025 33.4963H55.9188C56.1166 33.4963 56.2721 33.5344 56.3855 33.6113C56.4987 33.6882 56.5789 33.7951 56.6263 33.9326C56.6738 34.0697 56.6976 34.2299 56.6976 34.4127V34.6653C56.6976 34.8187 56.6818 34.9487 56.6502 35.0549C56.6186 35.1609 56.5605 35.2396 56.4762 35.2908C56.6211 35.3128 56.7371 35.3932 56.8241 35.5325C56.9111 35.6712 56.9544 35.8563 56.9544 36.0867V37.25C56.9544 37.3818 56.907 37.4477 56.8121 37.4477H56.1997C56.1048 37.4477 56.0573 37.3818 56.0573 37.25V36.4105C56.0573 36.3263 56.046 36.2658 56.0237 36.2292C56.0012 36.1926 55.9624 36.1744 55.907 36.1744H55.3537V37.25C55.3537 37.3818 55.3062 37.4477 55.2113 37.4477ZM55.3537 34.484V35.1867H55.6502C55.7185 35.1867 55.7647 35.1617 55.7885 35.1126C55.8121 35.0631 55.8239 35.0019 55.8239 34.9285V34.7418C55.8239 34.6691 55.8121 34.6075 55.7885 34.558C55.7647 34.5089 55.7185 34.484 55.6502 34.484H55.3537ZM59.7889 36.4105C59.7889 36.5789 59.7712 36.7314 59.7355 36.8686C59.6999 37.006 59.6374 37.1239 59.5478 37.2226C59.4583 37.3216 59.3336 37.3975 59.1742 37.4506C59.0146 37.5035 58.8111 37.53 58.5634 37.53C58.3157 37.53 58.112 37.5035 57.9528 37.4506C57.7932 37.3975 57.6688 37.3216 57.5791 37.2226C57.4896 37.1239 57.4263 37.006 57.3895 36.8686C57.3525 36.7314 57.3341 36.5789 57.3341 36.4105V34.5388C57.3341 34.3708 57.3525 34.2178 57.3895 34.0807C57.4263 33.9436 57.4896 33.8254 57.5791 33.7267C57.6688 33.6277 57.7932 33.5511 57.9528 33.4963C58.112 33.4413 58.3157 33.414 58.5634 33.414C58.8111 33.414 59.0146 33.4413 59.1742 33.4963C59.3336 33.5511 59.4583 33.6277 59.5478 33.7267C59.6374 33.8254 59.6999 33.9436 59.7355 34.0807C59.7712 34.2178 59.7889 34.3708 59.7889 34.5388V36.4105ZM58.2314 36.2128C58.2314 36.2859 58.2512 36.3471 58.2907 36.3966C58.3302 36.4461 58.421 36.471 58.5634 36.471C58.7083 36.471 58.8 36.4461 58.8381 36.3966C58.8763 36.3471 58.8956 36.2859 58.8956 36.2128V34.7364C58.8956 34.6634 58.8763 34.6031 58.8381 34.5555C58.8 34.5079 58.7083 34.484 58.5634 34.484C58.421 34.484 58.3302 34.5079 58.2907 34.5555C58.2512 34.6031 58.2314 34.6634 58.2314 34.7364V36.2128ZM41.6289 37.4477H40.9883C40.8936 37.4477 40.8462 37.3818 40.8462 37.25V36.5476L40.2413 35.4224C40.2018 35.3456 40.1708 35.2781 40.1484 35.2194C40.1259 35.1608 40.1109 35.0962 40.103 35.0246C40.0951 34.9533 40.0912 34.861 40.0912 34.7475V33.6936C40.0912 33.5618 40.1386 33.4963 40.2336 33.4963H40.8421C40.937 33.4963 40.9844 33.5618 40.9844 33.6936V34.594C40.9844 34.6302 40.9858 34.6677 40.9883 34.7065C40.991 34.7447 41.0015 34.784 41.0201 34.8244L41.202 35.2194C41.2283 35.2815 41.2598 35.3128 41.2968 35.3128H41.3362C41.3732 35.3128 41.4047 35.2815 41.4311 35.2194L41.6129 34.8244C41.6314 34.784 41.642 34.7447 41.6447 34.7065C41.6472 34.6677 41.6486 34.6302 41.6486 34.594V33.6936C41.6486 33.5618 41.6961 33.4963 41.7908 33.4963H42.38C42.4747 33.4963 42.5221 33.5618 42.5221 33.6936V34.7475C42.5221 34.861 42.5183 34.9533 42.5103 35.0246C42.5024 35.0962 42.4872 35.1608 42.4649 35.2194C42.4424 35.2781 42.4116 35.3456 42.3721 35.4224L41.7712 36.5533V37.25C41.7712 37.3818 41.7238 37.4477 41.6289 37.4477ZM45.7162 37.4477H44.7517C44.4197 37.4477 44.1747 37.3563 44.0164 37.1731C43.8584 36.9903 43.7794 36.7088 43.7794 36.3282V34.6214C43.7794 34.2371 43.8584 33.9534 44.0164 33.7705C44.1747 33.5877 44.4197 33.4963 44.7517 33.4963H45.7162C45.8111 33.4963 45.8586 33.5618 45.8586 33.6936V34.3579C45.8586 34.4897 45.8111 34.5555 45.7162 34.5555H44.9217C44.761 34.5555 44.6805 34.6469 44.6805 34.8298V36.1359C44.6805 36.3118 44.761 36.3995 44.9217 36.3995H45.7162C45.8111 36.3995 45.8586 36.4653 45.8586 36.5971V37.25C45.8586 37.3818 45.8111 37.4477 45.7162 37.4477ZM32.2008 42.9045H31.5882C31.4932 42.9045 31.4457 42.8386 31.4457 42.7069V39.1504C31.4457 39.0186 31.4932 38.9531 31.5882 38.9531H33.3513C33.446 38.9531 33.4934 39.0186 33.4934 39.1504V39.8036C33.4934 39.9354 33.446 40.0013 33.3513 40.0013H32.3431V40.5719H33.0309C33.1258 40.5719 33.1732 40.6378 33.1732 40.7696V41.4281C33.1732 41.5599 33.1258 41.6259 33.0309 41.6259H32.3431V42.7069C32.3431 42.8386 32.2956 42.9045 32.2008 42.9045ZM36.3001 41.8673C36.3001 42.0357 36.2822 42.1883 36.2465 42.3257C36.2111 42.4629 36.1485 42.5807 36.0588 42.6794C35.9693 42.7784 35.8449 42.8544 35.6853 42.9074C35.5258 42.9603 35.3224 42.9868 35.0747 42.9868C34.827 42.9868 34.6233 42.9603 34.4638 42.9074C34.3045 42.8544 34.1798 42.7784 34.0903 42.6794C34.0007 42.5807 33.9376 42.4629 33.9006 42.3257C33.8638 42.1883 33.8451 42.0357 33.8451 41.8673V39.9957C33.8451 39.8276 33.8638 39.6747 33.9006 39.5375C33.9376 39.4004 34.0007 39.2822 34.0903 39.1835C34.1798 39.0845 34.3045 39.0079 34.4638 38.9531C34.6233 38.8982 34.827 38.8708 35.0747 38.8708C35.3224 38.8708 35.5258 38.8982 35.6853 38.9531C35.8449 39.0079 35.9693 39.0845 36.0588 39.1835C36.1485 39.2822 36.2111 39.4004 36.2465 39.5375C36.2822 39.6747 36.3001 39.8276 36.3001 39.9957V41.8673ZM34.7425 41.6697C34.7425 41.7427 34.7622 41.8039 34.802 41.8534C34.8415 41.9029 34.9323 41.9278 35.0747 41.9278C35.2195 41.9278 35.3113 41.9029 35.3495 41.8534C35.3876 41.8039 35.4067 41.7427 35.4067 41.6697V40.1933C35.4067 40.1201 35.3876 40.0599 35.3495 40.0123C35.3113 39.9647 35.2195 39.9408 35.0747 39.9408C34.9323 39.9408 34.8415 39.9647 34.802 40.0123C34.7622 40.0599 34.7425 40.1201 34.7425 40.1933V41.6697ZM37.5531 42.9045H36.9443C36.8496 42.9045 36.8022 42.8386 36.8022 42.7069V39.1504C36.8022 39.0186 36.8496 38.9531 36.9443 38.9531H38.2608C38.4584 38.9531 38.6139 38.9915 38.7272 39.0681C38.8405 39.1451 38.9209 39.2523 38.9683 39.3894C39.0158 39.5265 39.0394 39.6867 39.0394 39.8695V40.122C39.0394 40.2756 39.0238 40.4055 38.9922 40.5117C38.9604 40.6179 38.9025 40.6964 38.8182 40.7475C38.9631 40.7696 39.079 40.8502 39.1661 40.9894C39.2529 41.1281 39.2964 41.3131 39.2964 41.5435V42.7069C39.2964 42.8386 39.249 42.9045 39.1541 42.9045H38.5415C38.4466 42.9045 38.3991 42.8386 38.3991 42.7069V41.8673C38.3991 41.7831 38.3878 41.723 38.3655 41.686C38.3432 41.6494 38.3042 41.6312 38.2488 41.6312H37.6954V42.7069C37.6954 42.8386 37.648 42.9045 37.5531 42.9045ZM37.6954 39.9408V40.6435H37.992C38.0605 40.6435 38.1067 40.6186 38.1303 40.5694C38.1541 40.5199 38.166 40.4587 38.166 40.3856V40.1986C38.166 40.1258 38.1541 40.0644 38.1303 40.0152C38.1067 39.9656 38.0605 39.9408 37.992 39.9408H37.6954ZM40.4703 42.9045H39.8814C39.7867 42.9045 39.7393 42.8386 39.7393 42.7069V39.1504C39.7393 39.0186 39.7867 38.9531 39.8814 38.9531H40.5178C40.5968 38.9531 40.6575 39.0079 40.6997 39.1176L41.0555 40.0123C41.0687 40.0451 41.0798 40.0691 41.0891 40.0836C41.0982 40.0981 41.1109 40.1053 41.1265 40.1053H41.1623C41.1779 40.1053 41.1906 40.0986 41.1997 40.0836C41.209 40.0691 41.2201 40.0451 41.2333 40.0123L41.5852 39.1176C41.6273 39.0079 41.6879 38.9531 41.7671 38.9531H42.4075C42.5024 38.9531 42.5498 39.0186 42.5498 39.1504V42.7069C42.5498 42.8386 42.5024 42.9045 42.4075 42.9045H41.7987C41.7038 42.9045 41.6563 42.8386 41.6563 42.7069V40.7753L41.4232 41.3733C41.3784 41.4906 41.3085 41.5489 41.2135 41.5489H41.0555C40.9606 41.5489 40.8906 41.4906 40.8459 41.3733L40.6128 40.7753V42.7069C40.6128 42.8386 40.5653 42.9045 40.4703 42.9045ZM43.9015 42.7069C43.9015 42.8386 43.854 42.9045 43.7594 42.9045H43.1781C43.0834 42.9045 43.036 42.8386 43.036 42.7069V41.2583C43.036 41.1485 43.0485 41.0221 43.0734 40.8793C43.0984 40.7365 43.1374 40.57 43.1902 40.3799L43.5339 39.134C43.563 39.0133 43.6302 38.9531 43.7356 38.9531H44.7989C44.9017 38.9531 44.9676 39.0133 44.9966 39.134L45.3404 40.3799C45.3931 40.57 45.4321 40.7365 45.4571 40.8793C45.4821 41.0221 45.4946 41.1485 45.4946 41.2583V42.7069C45.4946 42.8386 45.4471 42.9045 45.3522 42.9045H44.7553C44.6527 42.9045 44.6013 42.8386 44.6013 42.7069V41.9386H43.9015V42.7069ZM44.1268 40.1053L43.941 40.9399H44.5618L44.3761 40.1053C44.3575 40.0436 44.3325 40.0123 44.3007 40.0123H44.2019C44.1704 40.0123 44.1454 40.0436 44.1268 40.1053ZM47.8742 42.9045H46.9096C46.5777 42.9045 46.3327 42.8131 46.1745 42.6303C46.0164 42.4471 45.9374 42.1656 45.9374 41.785V40.0782C45.9374 39.6939 46.0164 39.4102 46.1745 39.2273C46.3327 39.0445 46.5777 38.9531 46.9096 38.9531H47.8742C47.9692 38.9531 48.0166 39.0186 48.0166 39.1504V39.8147C48.0166 39.9465 47.9692 40.0123 47.8742 40.0123H47.0797C46.9189 40.0123 46.8386 40.1038 46.8386 40.2866V41.5927C46.8386 41.7686 46.9189 41.8563 47.0797 41.8563H47.8742C47.9692 41.8563 48.0166 41.9221 48.0166 42.0539V42.7069C48.0166 42.8386 47.9692 42.9045 47.8742 42.9045ZM48.5422 42.9045C48.4475 42.9045 48.4001 42.8386 48.4001 42.7069V42.0539C48.4001 41.9221 48.4475 41.8563 48.5422 41.8563H48.9337V40.0123H48.5422C48.4475 40.0123 48.4001 39.9465 48.4001 39.8147V39.1504C48.4001 39.0186 48.4475 38.9531 48.5422 38.9531H50.2264C50.3213 38.9531 50.3687 39.0186 50.3687 39.1504V39.8147C50.3687 39.9465 50.3213 40.0123 50.2264 40.0123H49.8428V41.8563H50.2264C50.3213 41.8563 50.3687 41.9221 50.3687 42.0539V42.7069C50.3687 42.8386 50.3213 42.9045 50.2264 42.9045H48.5422ZM53.266 41.8673C53.266 42.0357 53.2483 42.1883 53.2127 42.3257C53.177 42.4629 53.1146 42.5807 53.0249 42.6794C52.9354 42.7784 52.8108 42.8544 52.6514 42.9074C52.492 42.9603 52.2883 42.9868 52.0406 42.9868C51.7929 42.9868 51.5894 42.9603 51.43 42.9074C51.2706 42.8544 51.146 42.7784 51.0562 42.6794C50.9668 42.5807 50.9035 42.4629 50.8666 42.3257C50.8296 42.1883 50.8113 42.0357 50.8113 41.8673V39.9957C50.8113 39.8276 50.8296 39.6747 50.8666 39.5375C50.9035 39.4004 50.9668 39.2822 51.0562 39.1835C51.146 39.0845 51.2706 39.0079 51.43 38.9531C51.5894 38.8982 51.7929 38.8708 52.0406 38.8708C52.2883 38.8708 52.492 38.8982 52.6514 38.9531C52.8108 39.0079 52.9354 39.0845 53.0249 39.1835C53.1146 39.2822 53.177 39.4004 53.2127 39.5375C53.2483 39.6747 53.266 39.8276 53.266 39.9957V41.8673ZM51.7086 41.6697C51.7086 41.7427 51.7284 41.8039 51.7679 41.8534C51.8074 41.9029 51.8982 41.9278 52.0406 41.9278C52.1854 41.9278 52.2772 41.9029 52.3153 41.8534C52.3537 41.8039 52.3728 41.7427 52.3728 41.6697V40.1933C52.3728 40.1201 52.3537 40.0599 52.3153 40.0123C52.2772 39.9647 52.1854 39.9408 52.0406 39.9408C51.8982 39.9408 51.8074 39.9647 51.7679 40.0123C51.7284 40.0599 51.7086 40.1201 51.7086 40.1933V41.6697ZM52.7206 38.5357L51.341 38.7718C51.2513 38.7863 51.2066 38.7261 51.2066 38.5909V38.0637C51.2066 37.9943 51.2177 37.9458 51.2402 37.9184C51.2627 37.891 51.2988 37.8736 51.3489 37.8664L52.7284 37.6302C52.818 37.6157 52.8628 37.6759 52.8628 37.8115V38.3383C52.8628 38.4079 52.8517 38.4562 52.8292 38.4837C52.807 38.511 52.7706 38.5284 52.7206 38.5357ZM54.5033 42.9045H53.9105C53.8155 42.9045 53.7681 42.8386 53.7681 42.7069V39.1504C53.7681 39.0186 53.8155 38.9531 53.9105 38.9531H54.3216C54.4163 38.9531 54.4942 39.0023 54.5549 39.1009L55.3216 40.3197V39.1504C55.3216 39.0186 55.3691 38.9531 55.464 38.9531H56.0569C56.1518 38.9531 56.1992 39.0186 56.1992 39.1504V42.7069C56.1992 42.8386 56.1518 42.9045 56.0569 42.9045H55.464C55.3691 42.9045 55.3216 42.8386 55.3216 42.7069V42.0319L54.6456 40.8957V42.7069C54.6456 42.8386 54.5982 42.9045 54.5033 42.9045Z" fill="white"/>
    <path d="M32.1669 48.1125H31.5541C31.4594 48.1125 31.4119 48.0467 31.4119 47.9149V44.3584C31.4119 44.2268 31.4594 44.1608 31.5541 44.1608H32.7638C33.0037 44.1608 33.1914 44.2056 33.3269 44.2954C33.4628 44.385 33.5584 44.5101 33.6138 44.6712C33.6691 44.8323 33.6966 45.019 33.6966 45.2312V45.9335C33.6966 46.1457 33.6691 46.3323 33.6138 46.4935C33.5584 46.6542 33.4628 46.7797 33.3269 46.8695C33.1914 46.959 33.0037 47.0038 32.7638 47.0038H32.3093V47.9149C32.3093 48.0467 32.2618 48.1125 32.1669 48.1125ZM32.3013 45.1873V46.0158H32.6571C32.7335 46.0158 32.7836 45.9884 32.8072 45.9335C32.8311 45.8787 32.8429 45.8166 32.8429 45.7468V45.4563C32.8429 45.3827 32.8311 45.3197 32.8072 45.2668C32.7836 45.2138 32.7335 45.1873 32.6571 45.1873H32.3013ZM34.859 48.1125H34.25C34.1553 48.1125 34.1079 48.0467 34.1079 47.9149V44.3584C34.1079 44.2268 34.1553 44.1608 34.25 44.1608H35.5665C35.7641 44.1608 35.9196 44.1993 36.0329 44.2762C36.1462 44.3528 36.2266 44.46 36.274 44.5971C36.3215 44.7342 36.3451 44.8944 36.3451 45.0772V45.3301C36.3451 45.4833 36.3294 45.6135 36.2979 45.7195C36.2661 45.8257 36.2082 45.9042 36.124 45.9556C36.2688 45.9776 36.3849 46.058 36.4718 46.1971C36.5585 46.3361 36.6021 46.5208 36.6021 46.7513V47.9149C36.6021 48.0467 36.5547 48.1125 36.4598 48.1125H35.8471C35.7522 48.1125 35.7048 48.0467 35.7048 47.9149V47.0751C35.7048 46.9913 35.6937 46.9307 35.6712 46.8941C35.649 46.8576 35.6099 46.8392 35.5544 46.8392H35.0013V47.9149C35.0013 48.0467 34.9539 48.1125 34.859 48.1125ZM35.0013 45.1489V45.8512H35.2976C35.3662 45.8512 35.4123 45.8266 35.436 45.7771C35.4598 45.7276 35.4716 45.6665 35.4716 45.5934V45.4068C35.4716 45.3336 35.4598 45.2721 35.436 45.2229C35.4123 45.1734 35.3662 45.1489 35.2976 45.1489H35.0013ZM39.4365 47.0751C39.4365 47.2434 39.4186 47.3963 39.3832 47.5334C39.3475 47.6706 39.2849 47.7888 39.1952 47.8874C39.1057 47.9862 38.9813 48.0622 38.8217 48.1155C38.6623 48.1684 38.4588 48.1948 38.2111 48.1948C37.9634 48.1948 37.7597 48.1684 37.6003 48.1155C37.4409 48.0622 37.3165 47.9862 37.2267 47.8874C37.1371 47.7888 37.074 47.6706 37.037 47.5334C37.0001 47.3963 36.9818 47.2434 36.9818 47.0751V45.2037C36.9818 45.0353 37.0001 44.8825 37.037 44.7454C37.074 44.6081 37.1371 44.4902 37.2267 44.3916C37.3165 44.2926 37.4409 44.2156 37.6003 44.1608C37.7597 44.106 37.9634 44.0785 38.2111 44.0785C38.4588 44.0785 38.6623 44.106 38.8217 44.1608C38.9813 44.2156 39.1057 44.2926 39.1952 44.3916C39.2849 44.4902 39.3475 44.6081 39.3832 44.7454C39.4186 44.8825 39.4365 45.0353 39.4365 45.2037V47.0751ZM37.8789 46.8774C37.8789 46.9509 37.8986 47.0121 37.9384 47.0616C37.9779 47.1111 38.0687 47.1356 38.2111 47.1356C38.356 47.1356 38.4477 47.1111 38.4859 47.0616C38.524 47.0121 38.5431 46.9509 38.5431 46.8774V45.4011C38.5431 45.3279 38.524 45.2678 38.4859 45.2202C38.4477 45.1724 38.356 45.1489 38.2111 45.1489C38.0687 45.1489 37.9779 45.1724 37.9384 45.2202C37.8986 45.2678 37.8789 45.3279 37.8789 45.4011V46.8774ZM40.6936 48.1125H40.0807C39.986 48.1125 39.9386 48.0467 39.9386 47.9149V44.3584C39.9386 44.2268 39.986 44.1608 40.0807 44.1608H41.8439C41.9388 44.1608 41.9862 44.2268 41.9862 44.3584V45.0114C41.9862 45.1432 41.9388 45.209 41.8439 45.209H40.8359V45.78H41.5237C41.6186 45.78 41.6659 45.8459 41.6659 45.9776V46.6363C41.6659 46.7681 41.6186 46.8339 41.5237 46.8339H40.8359V47.9149C40.8359 48.0467 40.7885 48.1125 40.6936 48.1125ZM44.3579 48.1125H42.5237C42.429 48.1125 42.3816 48.0467 42.3816 47.9149V44.3584C42.3816 44.2268 42.429 44.1608 42.5237 44.1608H44.3579C44.4528 44.1608 44.5003 44.2268 44.5003 44.3584V45.0007C44.5003 45.1324 44.4528 45.1983 44.3579 45.1983H43.2669V45.6208H44.0377C44.1326 45.6208 44.1801 45.6867 44.1801 45.8185V46.4055C44.1801 46.5373 44.1326 46.6031 44.0377 46.6031H43.2669V47.0751H44.3579C44.4528 47.0751 44.5003 47.141 44.5003 47.2727V47.9149C44.5003 48.0467 44.4528 48.1125 44.3579 48.1125ZM46.287 48.1125H45.0377C44.9428 48.1125 44.8956 48.0467 44.8956 47.9149V47.2727C44.8956 47.141 44.9428 47.0751 45.0377 47.0751H46.1013C46.1356 47.0751 46.161 47.0597 46.1783 47.0287C46.1953 46.9975 46.2039 46.96 46.2039 46.9162C46.2039 46.8538 46.1953 46.8081 46.1783 46.7787C46.161 46.7497 46.1356 46.733 46.1013 46.7292L45.5082 46.6141C45.3238 46.5738 45.1756 46.489 45.0636 46.3588C44.9514 46.2289 44.8956 46.0104 44.8956 45.703V45.1267C44.8956 44.8121 44.968 44.5725 45.1129 44.4079C45.258 44.2431 45.4583 44.1608 45.7137 44.1608H46.8206C46.9156 44.1608 46.963 44.2268 46.963 44.3584V45.0114C46.963 45.1432 46.9156 45.209 46.8206 45.209H45.8995C45.8284 45.209 45.7927 45.2642 45.7927 45.3736C45.7927 45.4799 45.8284 45.5386 45.8995 45.5492L46.4887 45.6592C46.6125 45.6848 46.7205 45.7295 46.8127 45.7936C46.9049 45.8579 46.9768 45.9518 47.0282 46.0763C47.0795 46.2008 47.1054 46.3655 47.1054 46.5703V47.1466C47.1054 47.4575 47.0327 47.6961 46.8879 47.8626C46.7428 48.029 46.5427 48.1125 46.287 48.1125ZM47.6151 48.1125C47.5204 48.1125 47.473 48.0467 47.473 47.9149V47.2618C47.473 47.13 47.5204 47.0643 47.6151 47.0643H48.0066V45.2202H47.6151C47.5204 45.2202 47.473 45.1542 47.473 45.0227V44.3584C47.473 44.2268 47.5204 44.1608 47.6151 44.1608H49.2993C49.3942 44.1608 49.4416 44.2268 49.4416 44.3584V45.0227C49.4416 45.1542 49.3942 45.2202 49.2993 45.2202H48.9157V47.0643H49.2993C49.3942 47.0643 49.4416 47.13 49.4416 47.2618V47.9149C49.4416 48.0467 49.3942 48.1125 49.2993 48.1125H47.6151ZM52.3389 47.0751C52.3389 47.2434 52.3212 47.3963 52.2856 47.5334C52.2499 47.6706 52.1875 47.7888 52.0978 47.8874C52.0083 47.9862 51.8837 48.0622 51.7243 48.1155C51.5649 48.1684 51.3612 48.1948 51.1135 48.1948C50.8658 48.1948 50.6623 48.1684 50.5029 48.1155C50.3435 48.0622 50.2188 47.9862 50.1292 47.8874C50.0397 47.7888 49.9764 47.6706 49.9396 47.5334C49.9026 47.3963 49.8842 47.2434 49.8842 47.0751V45.2037C49.8842 45.0353 49.9026 44.8825 49.9396 44.7454C49.9764 44.6081 50.0397 44.4902 50.1292 44.3916C50.2188 44.2926 50.3435 44.2156 50.5029 44.1608C50.6623 44.106 50.8658 44.0785 51.1135 44.0785C51.3612 44.0785 51.5649 44.106 51.7243 44.1608C51.8837 44.2156 52.0083 44.2926 52.0978 44.3916C52.1875 44.4902 52.2499 44.6081 52.2856 44.7454C52.3212 44.8825 52.3389 45.0353 52.3389 45.2037V47.0751ZM50.7815 46.8774C50.7815 46.9509 50.8013 47.0121 50.8408 47.0616C50.8803 47.1111 50.9711 47.1356 51.1135 47.1356C51.2583 47.1356 51.35 47.1111 51.3883 47.0616C51.4266 47.0121 51.4457 46.9509 51.4457 46.8774V45.4011C51.4457 45.3279 51.4266 45.2678 51.3883 45.2202C51.35 45.1724 51.2583 45.1489 51.1135 45.1489C50.9711 45.1489 50.8803 45.1724 50.8408 45.2202C50.8013 45.2678 50.7815 45.3279 50.7815 45.4011V46.8774ZM53.5762 48.1125H52.9833C52.8884 48.1125 52.841 48.0467 52.841 47.9149V44.3584C52.841 44.2268 52.8884 44.1608 52.9833 44.1608H53.3946C53.4893 44.1608 53.5671 44.2103 53.6278 44.309L54.3945 45.5274V44.3584C54.3945 44.2268 54.442 44.1608 54.5369 44.1608H55.1298C55.2247 44.1608 55.2721 44.2268 55.2721 44.3584V47.9149C55.2721 48.0467 55.2247 48.1125 55.1298 48.1125H54.5369C54.442 48.1125 54.3945 48.0467 54.3945 47.9149V47.24L53.7186 46.1038V47.9149C53.7186 48.0467 53.6711 48.1125 53.5762 48.1125ZM56.6241 47.9149C56.6241 48.0467 56.5766 48.1125 56.4817 48.1125H55.9007C55.8058 48.1125 55.7583 48.0467 55.7583 47.9149V46.466C55.7583 46.3563 55.771 46.2299 55.796 46.0874C55.821 45.9446 55.8597 45.7781 55.9127 45.588L56.2564 44.3421C56.2853 44.2211 56.3525 44.1608 56.4581 44.1608H57.5214C57.6243 44.1608 57.6901 44.2211 57.7192 44.3421L58.063 45.588C58.1157 45.7781 58.1545 45.9446 58.1794 46.0874C58.2047 46.2299 58.2172 46.3563 58.2172 46.466V47.9149C58.2172 48.0467 58.1697 48.1125 58.0748 48.1125H57.4778C57.375 48.1125 57.3239 48.0467 57.3239 47.9149V47.1466H56.6241V47.9149ZM56.8493 45.3135L56.6636 46.1476H57.2841L57.0984 45.3135C57.08 45.2513 57.055 45.2202 57.0232 45.2202H56.9245C56.8929 45.2202 56.8677 45.2513 56.8493 45.3135ZM60.8577 48.1125H58.8457C58.7507 48.1125 58.7033 48.0467 58.7033 47.9149V44.3584C58.7033 44.2268 58.7507 44.1608 58.8457 44.1608H59.4583C59.5532 44.1608 59.6006 44.2268 59.6006 44.3584V47.0751H60.1422V46.1861C60.1422 46.0543 60.1896 45.9884 60.2845 45.9884H60.8577C60.9526 45.9884 61 46.0543 61 46.1861V47.9149C61 48.0467 60.9526 48.1125 60.8577 48.1125ZM31.4909 53.2863C31.3961 53.2863 31.3486 53.2204 31.3486 53.0886V52.4354C31.3486 52.3036 31.3961 52.2381 31.4909 52.2381H31.8822V50.3938H31.4909C31.3961 50.3938 31.3486 50.3279 31.3486 50.1964V49.5322C31.3486 49.4004 31.3961 49.3345 31.4909 49.3345H33.1748C33.2698 49.3345 33.3173 49.4004 33.3173 49.5322V50.1964C33.3173 50.3279 33.2698 50.3938 33.1748 50.3938H32.7913V52.2381H33.1748C33.2698 52.2381 33.3173 52.3036 33.3173 52.4354V53.0886C33.3173 53.2204 33.2698 53.2863 33.1748 53.2863H31.4909ZM35.1474 53.2863H34.507C34.4121 53.2863 34.3647 53.2204 34.3647 53.0886V50.3938H33.7836C33.6887 50.3938 33.6413 50.3279 33.6413 50.1964V49.5322C33.6413 49.4004 33.6887 49.3345 33.7836 49.3345H35.8708C35.9657 49.3345 36.0131 49.4004 36.0131 49.5322V50.1964C36.0131 50.3279 35.9657 50.3938 35.8708 50.3938H35.2897V53.0886C35.2897 53.2204 35.2423 53.2863 35.1474 53.2863ZM36.4756 53.2863C36.3808 53.2863 36.3333 53.2204 36.3333 53.0886V52.4354C36.3333 52.3036 36.3808 52.2381 36.4756 52.2381H36.8669V50.3938H36.4756C36.3808 50.3938 36.3333 50.3279 36.3333 50.1964V49.5322C36.3333 49.4004 36.3808 49.3345 36.4756 49.3345H38.1595C38.2545 49.3345 38.302 49.4004 38.302 49.5322V50.1964C38.302 50.3279 38.2545 50.3938 38.1595 50.3938H37.776V52.2381H38.1595C38.2545 52.2381 38.302 52.3036 38.302 52.4354V53.0886C38.302 53.2204 38.2545 53.2863 38.1595 53.2863H36.4756ZM39.5233 53.2863H38.9302C38.8355 53.2863 38.788 53.2204 38.788 53.0886V49.5322C38.788 49.4004 38.8355 49.3345 38.9302 49.3345H39.3415C39.4363 49.3345 39.514 49.3841 39.5746 49.4827L40.3414 50.7012V49.5322C40.3414 49.4004 40.3889 49.3345 40.4838 49.3345H41.0769C41.1718 49.3345 41.2192 49.4004 41.2192 49.5322V53.0886C41.2192 53.2204 41.1718 53.2863 41.0769 53.2863H40.4838C40.3889 53.2863 40.3414 53.2204 40.3414 53.0886V52.4136L39.6655 51.2774V53.0886C39.6655 53.2204 39.6182 53.2863 39.5233 53.2863ZM43.7412 53.2863H41.907C41.8121 53.2863 41.7646 53.2204 41.7646 53.0886V49.5322C41.7646 49.4004 41.8121 49.3345 41.907 49.3345H43.7412C43.8361 49.3345 43.8834 49.4004 43.8834 49.5322V50.1744C43.8834 50.3058 43.8361 50.3717 43.7412 50.3717H42.6502V50.7945H43.4208C43.5158 50.7945 43.5632 50.8604 43.5632 50.9922V51.5792C43.5632 51.7109 43.5158 51.7768 43.4208 51.7768H42.6502V52.2488H43.7412C43.8361 52.2488 43.8834 52.3146 43.8834 52.4464V53.0886C43.8834 53.2204 43.8361 53.2863 43.7412 53.2863ZM45.1008 53.2863H44.4921C44.3975 53.2863 44.35 53.2204 44.35 53.0886V49.5322C44.35 49.4004 44.3975 49.3345 44.4921 49.3345H45.8086C46.0062 49.3345 46.1617 49.373 46.275 49.4499C46.3883 49.5266 46.4687 49.6338 46.5162 49.7709C46.5636 49.908 46.5872 50.0682 46.5872 50.251V50.5035C46.5872 50.6571 46.5715 50.7873 46.54 50.8932C46.5082 50.9994 46.4503 51.0779 46.3661 51.1293C46.5109 51.1514 46.6267 51.2317 46.7137 51.3707C46.8006 51.5099 46.8443 51.6946 46.8443 51.925V53.0886C46.8443 53.2204 46.7968 53.2863 46.7019 53.2863H46.0893C45.9944 53.2863 45.9469 53.2204 45.9469 53.0886V52.2488C45.9469 52.1649 45.9355 52.1044 45.9133 52.0678C45.891 52.0312 45.852 52.013 45.7966 52.013H45.2433V53.0886C45.2433 53.2204 45.1958 53.2863 45.1008 53.2863ZM45.2433 50.3225V51.025H45.5398C45.6084 51.025 45.6544 51.0004 45.6781 50.9509C45.7019 50.9014 45.7137 50.8402 45.7137 50.7671V50.5805C45.7137 50.5073 45.7019 50.4459 45.6781 50.3966C45.6544 50.3471 45.6084 50.3225 45.5398 50.3225H45.2433ZM48.0933 53.0886C48.0933 53.2204 48.0459 53.2863 47.9512 53.2863H47.3699C47.2752 53.2863 47.2277 53.2204 47.2277 53.0886V51.6397C47.2277 51.53 47.2402 51.4036 47.2652 51.2611C47.2902 51.1183 47.3293 50.9518 47.3819 50.7617L47.7257 49.5158C47.7548 49.3948 47.822 49.3345 47.9273 49.3345H48.9907C49.0936 49.3345 49.1594 49.3948 49.1885 49.5158L49.5322 50.7617C49.5849 50.9518 49.6238 51.1183 49.6487 51.2611C49.6739 51.4036 49.6864 51.53 49.6864 51.6397V53.0886C49.6864 53.2204 49.639 53.2863 49.5441 53.2863H48.947C48.8444 53.2863 48.7931 53.2204 48.7931 53.0886V52.3203H48.0933V53.0886ZM48.3186 50.4871L48.1328 51.3212H48.7536L48.5677 50.4871C48.5493 50.4251 48.5243 50.3938 48.4925 50.3938H48.3937C48.3621 50.3938 48.337 50.4251 48.3186 50.4871ZM50.9078 53.2863H50.3149C50.22 53.2863 50.1725 53.2204 50.1725 53.0886V49.5322C50.1725 49.4004 50.22 49.3345 50.3149 49.3345H50.7261C50.8208 49.3345 50.8987 49.3841 50.9593 49.4827L51.7261 50.7012V49.5322C51.7261 49.4004 51.7736 49.3345 51.8685 49.3345H52.4613C52.5562 49.3345 52.6037 49.4004 52.6037 49.5322V53.0886C52.6037 53.2204 52.5562 53.2863 52.4613 53.2863H51.8685C51.7736 53.2863 51.7261 53.2204 51.7261 53.0886V52.4136L51.0501 51.2774V53.0886C51.0501 53.2204 51.0026 53.2863 50.9078 53.2863ZM54.4933 53.2863H53.8528C53.7581 53.2863 53.7106 53.2204 53.7106 53.0886V50.3938H53.1294C53.0347 50.3938 52.9872 50.3279 52.9872 50.1964V49.5322C52.9872 49.4004 53.0347 49.3345 53.1294 49.3345H55.2165C55.3114 49.3345 55.3589 49.4004 55.3589 49.5322V50.1964C55.3589 50.3279 55.3114 50.3938 55.2165 50.3938H54.6355V53.0886C54.6355 53.2204 54.588 53.2863 54.4933 53.2863ZM57.7188 53.2863H55.8845C55.7898 53.2863 55.7424 53.2204 55.7424 53.0886V49.5322C55.7424 49.4004 55.7898 49.3345 55.8845 49.3345H57.7188C57.8136 49.3345 57.8611 49.4004 57.8611 49.5322V50.1744C57.8611 50.3058 57.8136 50.3717 57.7188 50.3717H56.6279V50.7945H57.3986C57.4935 50.7945 57.5409 50.8604 57.5409 50.9922V51.5792C57.5409 51.7109 57.4935 51.7768 57.3986 51.7768H56.6279V52.2488H57.7188C57.8136 52.2488 57.8611 52.3146 57.8611 52.4464V53.0886C57.8611 53.2204 57.8136 53.2863 57.7188 53.2863Z" fill="white"/>
    <path d="M33.7527 29.5009H33.2087C33.1244 29.5009 33.0822 29.4423 33.0822 29.3253V26.1671C33.0822 26.0501 33.1244 25.9918 33.2087 25.9918H34.2829C34.4956 25.9918 34.6626 26.0316 34.7831 26.111C34.9034 26.1907 34.9884 26.302 35.0377 26.4448C35.0867 26.588 35.1112 26.7538 35.1112 26.942V27.5659C35.1112 27.7544 35.0867 27.9199 35.0377 28.063C34.9884 28.2059 34.9034 28.3175 34.7831 28.3969C34.6626 28.4764 34.4956 28.5165 34.2829 28.5165H33.8792V29.3253C33.8792 29.4423 33.8369 29.5009 33.7527 29.5009ZM33.8721 26.9029V27.6391H34.188C34.2559 27.6391 34.3004 27.6148 34.3215 27.5659C34.3424 27.5174 34.353 27.4619 34.353 27.4001V27.1419C34.353 27.077 34.3424 27.0208 34.3215 26.9739C34.3004 26.9266 34.2559 26.9029 34.188 26.9029H33.8721ZM36.1433 29.5009H35.6028C35.5184 29.5009 35.4763 29.4423 35.4763 29.3253V26.1671C35.4763 26.0501 35.5184 25.9918 35.6028 25.9918H36.7717C36.947 25.9918 37.0851 26.0259 37.1859 26.0939C37.2865 26.1623 37.3578 26.2573 37.3997 26.379C37.442 26.501 37.4631 26.6431 37.4631 26.8055V27.0296C37.4631 27.1662 37.4491 27.2815 37.4211 27.3758C37.3929 27.47 37.3414 27.5401 37.2665 27.5855C37.3953 27.6051 37.4984 27.6762 37.5755 27.7998C37.6527 27.9235 37.6913 28.0874 37.6913 28.2923V29.3253C37.6913 29.4423 37.6491 29.5009 37.5648 29.5009H37.0208C36.9366 29.5009 36.8945 29.4423 36.8945 29.3253V28.5797C36.8945 28.5048 36.8846 28.4512 36.8646 28.419C36.8449 28.3866 36.8104 28.3701 36.7611 28.3701H36.2697V29.3253C36.2697 29.4423 36.2274 29.5009 36.1433 29.5009ZM36.2697 26.8689V27.4928H36.5329C36.5937 27.4928 36.6346 27.471 36.6557 27.4269C36.6768 27.3831 36.6872 27.3289 36.6872 27.2639V27.0981C36.6872 27.0332 36.6768 26.9786 36.6557 26.9347C36.6346 26.8909 36.5937 26.8689 36.5329 26.8689H36.2697ZM40.2081 28.5797C40.2081 28.7292 40.1924 28.8648 40.1609 28.9868C40.1291 29.1085 40.0737 29.2131 39.9942 29.3011C39.9145 29.3887 39.8039 29.4562 39.6625 29.5032C39.5208 29.5504 39.3401 29.5741 39.12 29.5741C38.9 29.5741 38.7193 29.5504 38.5776 29.5032C38.4361 29.4562 38.3255 29.3887 38.246 29.3011C38.1663 29.2131 38.1103 29.1085 38.0773 28.9868C38.0447 28.8648 38.0283 28.7292 38.0283 28.5797V26.9177C38.0283 26.7684 38.0447 26.6328 38.0773 26.5108C38.1103 26.3888 38.1663 26.2841 38.246 26.1964C38.3255 26.1087 38.4361 26.0403 38.5776 25.9918C38.7193 25.9429 38.9 25.9187 39.12 25.9187C39.3401 25.9187 39.5208 25.9429 39.6625 25.9918C39.8039 26.0403 39.9145 26.1087 39.9942 26.1964C40.0737 26.2841 40.1291 26.3888 40.1609 26.5108C40.1924 26.6328 40.2081 26.7684 40.2081 26.9177V28.5797ZM38.8253 28.4042C38.8253 28.4691 38.8428 28.5237 38.8777 28.5675C38.913 28.6113 38.9936 28.6334 39.12 28.6334C39.2488 28.6334 39.3301 28.6113 39.3639 28.5675C39.3979 28.5237 39.415 28.4691 39.415 28.4042V27.0933C39.415 27.0281 39.3979 26.9744 39.3639 26.9323C39.3301 26.89 39.2488 26.8689 39.12 26.8689C38.9936 26.8689 38.913 26.89 38.8777 26.9323C38.8428 26.9744 38.8253 27.0281 38.8253 27.0933V28.4042ZM42.1495 29.5009H41.2367C41.1922 29.5009 41.1561 29.4893 41.128 29.4666C41.0998 29.4439 41.0764 29.4016 41.0578 29.3399L40.7138 28.146C40.6856 28.0486 40.6634 27.9673 40.647 27.9023C40.6307 27.8374 40.6188 27.7714 40.6118 27.7046C40.6047 27.6381 40.6014 27.5545 40.6014 27.454V26.1671C40.6014 26.0501 40.6433 25.9918 40.7276 25.9918H41.2858C41.377 25.9918 41.4229 26.0501 41.4229 26.1671V27.5123C41.4229 27.5447 41.4251 27.5772 41.4297 27.6097C41.4344 27.6422 41.4415 27.6762 41.4508 27.7121L41.6159 28.3945C41.6275 28.4499 41.6498 28.4773 41.6824 28.4773H41.7212C41.754 28.4773 41.7762 28.4499 41.7878 28.3945L41.9529 27.7071C41.9622 27.6715 41.9692 27.6375 41.9738 27.605C41.9785 27.5722 41.9807 27.5401 41.9807 27.5076V26.1671C41.9807 26.0501 42.023 25.9918 42.1072 25.9918H42.6583C42.7426 25.9918 42.7848 26.0501 42.7848 26.1671V27.454C42.7848 27.5545 42.7812 27.6381 42.7742 27.7046C42.7671 27.7714 42.7555 27.8374 42.7392 27.9023C42.7226 27.9673 42.7005 28.0486 42.6724 28.146L42.3284 29.3399C42.312 29.4016 42.2898 29.4439 42.2617 29.4666C42.2335 29.4893 42.1963 29.5009 42.1495 29.5009ZM43.2868 29.5009C43.2026 29.5009 43.1603 29.4423 43.1603 29.3253V28.7453C43.1603 28.6283 43.2026 28.5701 43.2868 28.5701H43.6342V26.9323H43.2868C43.2026 26.9323 43.1603 26.8739 43.1603 26.7569V26.1671C43.1603 26.0501 43.2026 25.9918 43.2868 25.9918H44.782C44.8665 25.9918 44.9085 26.0501 44.9085 26.1671V26.7569C44.9085 26.8739 44.8665 26.9323 44.782 26.9323H44.4417V28.5701H44.782C44.8665 28.5701 44.9085 28.6283 44.9085 28.7453V29.3253C44.9085 29.4423 44.8665 29.5009 44.782 29.5009H43.2868ZM45.9932 29.5009H45.4667C45.3824 29.5009 45.3402 29.4423 45.3402 29.3253V26.1671C45.3402 26.0501 45.3824 25.9918 45.4667 25.9918H45.8318C45.916 25.9918 45.985 26.0357 46.0388 26.1233L46.7198 27.2052V26.1671C46.7198 26.0501 46.7621 25.9918 46.8463 25.9918H47.3729C47.457 25.9918 47.4991 26.0501 47.4991 26.1671V29.3253C47.4991 29.4423 47.457 29.5009 47.3729 29.5009H46.8463C46.7621 29.5009 46.7198 29.4423 46.7198 29.3253V28.7261L46.1196 27.7169V29.3253C46.1196 29.4423 46.0774 29.5009 45.9932 29.5009ZM49.6651 29.5009H48.8085C48.5136 29.5009 48.2959 29.4196 48.1555 29.2573C48.0152 29.0945 47.9448 28.8443 47.9448 28.5067V26.9909C47.9448 26.6495 48.0152 26.3979 48.1555 26.2352C48.2959 26.0728 48.5136 25.9918 48.8085 25.9918H49.6651C49.7493 25.9918 49.7913 26.0501 49.7913 26.1671V26.7569C49.7913 26.8739 49.7493 26.9323 49.6651 26.9323H48.9593C48.8165 26.9323 48.7452 27.0136 48.7452 27.176V28.3361C48.7452 28.4919 48.8165 28.5701 48.9593 28.5701H49.6651C49.7493 28.5701 49.7913 28.6283 49.7913 28.7453V29.3253C49.7913 29.4423 49.7493 29.5009 49.6651 29.5009ZM50.2582 29.5009C50.1739 29.5009 50.1317 29.4423 50.1317 29.3253V28.7453C50.1317 28.6283 50.1739 28.5701 50.2582 28.5701H50.6057V26.9323H50.2582C50.1739 26.9323 50.1317 26.8739 50.1317 26.7569V26.1671C50.1317 26.0501 50.1739 25.9918 50.2582 25.9918H51.7536C51.8378 25.9918 51.8798 26.0501 51.8798 26.1671V26.7569C51.8798 26.8739 51.8378 26.9323 51.7536 26.9323H51.413V28.5701H51.7536C51.8378 28.5701 51.8798 28.6283 51.8798 28.7453V29.3253C51.8798 29.4423 51.8378 29.5009 51.7536 29.5009H50.2582ZM53.0279 29.3253C53.0279 29.4423 52.9856 29.5009 52.9014 29.5009H52.3854C52.301 29.5009 52.259 29.4423 52.259 29.3253V28.0388C52.259 27.9414 52.2701 27.8291 52.2924 27.7025C52.3146 27.5757 52.3492 27.4279 52.3959 27.2588L52.7013 26.1525C52.727 26.0454 52.7867 25.9918 52.8805 25.9918H53.8246C53.9159 25.9918 53.9742 26.0454 54.0001 26.1525L54.3055 27.2588C54.3523 27.4279 54.3868 27.5757 54.4091 27.7025C54.4313 27.8291 54.4424 27.9414 54.4424 28.0388V29.3253C54.4424 29.4423 54.4004 29.5009 54.3162 29.5009H53.786C53.6947 29.5009 53.6491 29.4423 53.6491 29.3253V28.6428H53.0279V29.3253ZM53.2279 27.0151L53.0628 27.756H53.6139L53.449 27.0151C53.4327 26.96 53.4104 26.9323 53.3822 26.9323H53.2946C53.2665 26.9323 53.2442 26.96 53.2279 27.0151ZM56.7873 29.5009H55.0006C54.9163 29.5009 54.8741 29.4423 54.8741 29.3253V26.1671C54.8741 26.0501 54.9163 25.9918 55.0006 25.9918H55.5446C55.6288 25.9918 55.6711 26.0501 55.6711 26.1671V28.5797H56.152V27.7901C56.152 27.6731 56.194 27.6148 56.2783 27.6148H56.7873C56.8715 27.6148 56.9138 27.6731 56.9138 27.7901V29.3253C56.9138 29.4423 56.8715 29.5009 56.7873 29.5009Z" fill="white"/>
    <path fill-rule="evenodd" clip-rule="evenodd" d="M27.6234 39.2353C27.8114 39.1526 27.635 39.0514 27.8581 38.7413C28.1803 38.2929 28.834 38.461 28.7405 39.6753C28.3086 39.797 28.1131 39.8474 27.9449 40.2775C27.7789 40.7018 27.8329 41.3083 27.8329 41.8247C27.8329 42.6813 27.6794 43.9768 28.761 44.0105C29.1606 44.0228 29.4746 43.8216 29.6279 43.4858C29.815 43.0757 29.7627 42.4931 29.7627 41.9496C29.7627 41.0196 29.9303 39.7809 28.8911 39.6901C28.8568 39.3475 28.9601 38.5669 28.3808 38.362C27.8992 38.1914 27.4433 38.9244 27.6234 39.2353ZM28.7314 41.757C28.4724 41.757 28.1692 41.6854 28.1077 41.8664C28.2235 42.0294 29.2114 41.9389 29.4848 41.9313C29.4705 41.7018 29.4328 41.7501 29.2423 41.7554C29.1156 41.7588 28.989 41.7576 28.8625 41.7565C28.8645 41.4287 28.8736 40.4343 28.7912 40.0674C28.6526 40.5872 28.7308 41.4549 28.7314 41.757Z" fill="white"/>
    <path fill-rule="evenodd" clip-rule="evenodd" d="M23.8099 43.077C23.6705 43.2384 23.5827 43.2321 23.4905 43.1246C23.1508 42.7286 23.176 42.716 22.8967 43.1454C22.8011 43.2923 22.7234 43.298 22.6692 43.5271C22.7253 43.6778 22.8063 43.7998 22.8831 43.9297C23.0016 44.1312 22.9328 44.14 22.8692 44.4055C22.7244 44.4474 22.4451 44.4603 22.3447 44.5657C22.3074 44.7545 22.3234 45.2977 22.3404 45.5039C22.8733 45.6343 22.8322 45.5558 22.9053 45.7898C22.9233 45.8472 22.9398 45.9055 22.9598 45.9751C22.8901 46.1618 22.7225 46.3526 22.6844 46.5316C22.7348 46.7454 23.0381 47.1334 23.1717 47.2391C23.2718 47.2075 23.4081 47.0382 23.4809 46.9585C23.6047 46.8232 23.6665 46.8257 23.8124 46.9779L23.9096 47.6892C24.0361 47.7258 24.5597 47.7986 24.6264 47.6249C24.7477 47.3106 24.5618 47.0111 24.8864 46.868C25.0572 46.7927 25.2086 47.2592 25.3622 47.2393C25.5216 47.141 25.8103 46.7588 25.8664 46.5316C25.7937 46.3282 25.6617 46.174 25.5771 45.9751L25.6675 45.6542C25.8051 45.6129 26.0885 45.6 26.1889 45.4927C26.2281 45.3037 26.212 44.7588 26.1919 44.5549L25.6911 44.4282L25.6264 44.2725C25.6082 44.2163 25.5926 44.1495 25.5742 44.0836C25.644 43.8941 25.8083 43.7116 25.8494 43.5271C25.8131 43.3188 25.4888 42.9068 25.3622 42.8195C25.2556 42.8519 25.1328 43.0162 25.0535 43.1009C24.928 43.2349 24.8696 43.232 24.7213 43.0817L24.6244 42.3692C24.537 42.3447 24.0703 42.3184 23.9773 42.3497C23.8129 42.4052 23.8951 42.8667 23.8099 43.077ZM24.1487 44.1558C23.2734 44.4127 23.5656 46.1454 24.4067 45.9084C24.7125 45.8223 24.9873 45.386 24.9014 44.8339C24.8347 44.4058 24.537 44.0417 24.1487 44.1558Z" fill="white"/>
    </svg>
    